<svg width="34" height="34" viewBox="0 0 34 34" fill="none" xmlns="http://www.w3.org/2000/svg">
  <circle cx="17" cy="17" r="17" fill="#06033A" fillOpacity="0.4" />
  <path
    fillRule="evenodd"
    clipRule="evenodd"
    d="M16.5187 8C14.6933 8 13.2131 9.47947 13.2131 11.3056V16.3611C13.2131 16.8119 13.3035 17.2416 13.467 17.6332L14.4057 16.6946C14.3886 16.5859 14.3798 16.4745 14.3798 16.3611V11.3056C14.3798 10.1239 15.3375 9.16667 16.5187 9.16667C17.701 9.16667 18.6576 10.1232 18.6576 11.3056V12.4427L19.8241 11.2761C19.8083 9.46306 18.3355 8 16.5187 8ZM19.8242 14.5758L18.6576 15.7425V16.3611C18.6576 17.5423 17.7003 18.5 16.5187 18.5C16.3294 18.5 16.1458 18.4754 15.971 18.4291L15.0681 19.3319C15.5061 19.5463 15.9984 19.6667 16.5187 19.6667C18.3448 19.6667 19.8242 18.1865 19.8242 16.3611V14.5758ZM11.6477 19.4526C11.0794 18.559 10.7502 17.4985 10.7502 16.3611C10.7502 16.0389 10.489 15.7778 10.1668 15.7778C9.84466 15.7778 9.5835 16.0389 9.5835 16.3611C9.5835 17.8216 10.035 19.1766 10.8059 20.2943L11.6477 19.4526ZM15.9354 23.2721C14.6326 23.1636 13.4322 22.6951 12.4338 21.9662L13.2709 21.1292C14.196 21.7605 15.3142 22.1296 16.5187 22.1296C19.7045 22.1296 22.2872 19.547 22.2872 16.3611C22.2872 16.0389 22.5484 15.7778 22.8705 15.7778C23.1927 15.7778 23.4539 16.0389 23.4539 16.3611C23.4539 19.9948 20.6592 22.9759 17.102 23.2721V26.3426C17.102 26.6648 16.8408 26.9259 16.5187 26.9259C16.2323 26.9259 15.9941 26.7196 15.9447 26.4475L15.9354 26.3426V23.2721Z"
    fill="white"
  />
  <path
    fillRule="evenodd"
    clipRule="evenodd"
    d="M23.1709 8.7542C23.3987 8.52639 23.768 8.52639 23.9958 8.7542C24.1983 8.95669 24.2208 9.27102 24.0633 9.49837L23.9958 9.57916L9.99581 23.5792C9.76801 23.807 9.39866 23.807 9.17085 23.5792C8.96836 23.3767 8.94586 23.0623 9.10336 22.835L9.17085 22.7542L23.1709 8.7542Z"
    fill="white"
  />
</svg>